<svg width="63" height="62" viewBox="0 0 63 62" fill="none" xmlns="http://www.w3.org/2000/svg">
<path fill-rule="evenodd" clip-rule="evenodd" d="M31.6022 60.3739C47.8248 60.3739 60.9758 47.2229 60.9758 31.0002C60.9758 14.7776 47.8248 1.62659 31.6022 1.62659C15.3796 1.62659 2.22852 14.7776 2.22852 31.0002C2.22852 47.2229 15.3796 60.3739 31.6022 60.3739ZM31.6022 61.8739C48.6532 61.8739 62.4758 48.0513 62.4758 31.0002C62.4758 13.9492 48.6532 0.126587 31.6022 0.126587C14.5511 0.126587 0.728516 13.9492 0.728516 31.0002C0.728516 48.0513 14.5511 61.8739 31.6022 61.8739Z" fill="#E3E8ED"/>
<path fill-rule="evenodd" clip-rule="evenodd" d="M24.9639 19.3933L22.2015 19.9229C21.2752 20.1005 20.8606 20.7585 20.9257 21.3471C21.2134 23.949 22.3729 28.6543 26.7045 34.1822C31.1167 39.8131 35.4621 42.0461 37.8783 42.9151C38.4047 43.1044 39.1031 42.8885 39.5267 42.1075L41.0887 39.2279L42.1849 37.3454C42.2576 37.2207 42.2297 37.0617 42.1188 36.9692L38.5709 34.0074C38.4599 33.9147 38.2983 33.9158 38.1886 34.0098L36.2441 35.6752C35.1557 36.6074 33.5028 36.7769 32.2546 35.8476C30.9173 34.8519 29.6304 33.6418 28.5537 32.1779C27.6333 30.9264 26.9016 29.6273 26.3196 28.3486C25.6306 26.8349 26.2577 25.1473 27.5584 24.3243L29.0722 23.3666C29.194 23.2896 29.2426 23.136 29.1873 23.0029L27.5605 19.0856C27.5057 18.9538 27.3647 18.8798 27.2251 18.9097L24.9639 19.3933ZM43.0801 35.8177C43.7525 36.379 43.9219 37.3434 43.4812 38.1003L42.3964 39.9631L40.8453 42.8227C40.1497 44.1051 38.7434 44.8203 37.3706 44.3266C34.7099 43.3696 30.1234 40.9774 25.5238 35.1074C21.0066 29.3425 19.7507 24.3686 19.4348 21.5119C19.2651 19.9774 20.4028 18.7405 21.9191 18.4498L24.6657 17.9231L26.9114 17.4428C27.7582 17.2617 28.6136 17.7106 28.9458 18.5103L30.5726 22.4276C30.9079 23.2351 30.6131 24.1668 29.8742 24.6342L28.3604 25.592C27.6399 26.0478 27.3316 26.9512 27.6848 27.7272C28.2293 28.9235 28.9103 30.131 29.7621 31.2891C30.7348 32.6118 31.9088 33.72 33.1504 34.6444C33.7878 35.119 34.6648 35.0529 35.2683 34.536L37.2128 32.8705C37.8787 32.3002 38.8591 32.294 39.5321 32.8559L43.0801 35.8177Z" fill="#E3E8ED"/>
</svg>
