<svg width="25" height="24" viewBox="0 0 25 24" fill="none" xmlns="http://www.w3.org/2000/svg">
<path fill-rule="evenodd" clip-rule="evenodd" d="M17.4385 16.1572C20.565 12.2326 20.1866 6.49995 16.4509 3.0261C12.5304 -0.619703 6.39664 -0.396977 2.75083 3.52357C-0.894971 7.44413 -0.672246 13.5779 3.24831 17.2237C6.98415 20.6977 12.7296 20.6592 16.417 17.2557L23.2066 23.5695L24.2281 22.471L17.4385 16.1572ZM15.4295 4.12455C18.7434 7.20621 18.9316 12.3908 15.85 15.7047C12.7683 19.0186 7.58367 19.2069 4.26978 16.1252C0.955884 13.0436 0.767623 7.85894 3.84928 4.54505C6.93095 1.23115 12.1156 1.04289 15.4295 4.12455Z" fill="#273441"/>
</svg>
