<svg xmlns="http://www.w3.org/2000/svg" xmlnsXlink="http://www.w3.org/1999/xlink" width="1066.667" height="800" xmlnsV="https://vecta.io/nano"><defs><clipPath id="A"><path d="M0 600h800V0H0z"/></clipPath><path id="B" d="M387.95 262.999h1.946v-10.338h-1.208v-.014l-5.427 6.975v-6.961h-1.946v10.324h1.576l5.059-6.401z"/><path id="C" d="M422.876 261.17v-3.302h2.965c1.239 0 1.769.824 1.769 1.651s-.546 1.651-1.769 1.651zm7.198-8.509h-2.317l-3.007 3.45h-1.874v-3.45h-1.946v10.338l4.911-.014c2.434-.014 3.717-1.637 3.717-3.422 0-1.417-.651-2.845-2.611-3.244l3.127-3.525z"/><path id="D" d="M463.345 252.661h-7.729v10.324h7.729v-1.887h-5.797v-2.375h5.589v-1.816h-5.589v-2.328h5.797z"/></defs><g transform="matrix(1.333333 0 0 -1.333333 0 800)"><path d="M265.623 313.174l-43.904 25.346-43.9-25.346v-41.848l43.901-25.346 16.568 9.565-43.902 25.347v32.269l27.334 15.782 27.336-15.782v-32.269l-12.951-7.477-25.151 14.52-.002-10.391 54.671-31.564v10.393l-12.95 7.477 12.95 7.476z" fill="#0066b2"/><path d="M170.825 315.091l45.737 26.406-8.267 4.772-37.47-21.633zm101.793 9.545l-50.898 29.385-8.267-4.773 59.165-34.157z"/><g clip-path="url(#A)"><g fill="#0066b2"><path d="M567.222 294.879v-.139-.208c0-1.667-.29-3.23-.869-4.689s-1.376-2.732-2.396-3.821-2.211-1.955-3.578-2.604-2.812-.971-4.34-.971a9.96 9.96 0 0 0-4.339.971c-1.364.65-2.56 1.516-3.578 2.604s-1.818 2.364-2.396 3.821-.869 3.022-.869 4.689v.208.139 28.2h-9.863v-28.2c0-2.918.546-5.65 1.634-8.196s2.593-4.769 4.515-6.668 4.155-3.393 6.701-4.479 5.279-1.634 8.195-1.634 5.648.546 8.196 1.634 4.782 2.581 6.701 4.479 3.429 4.121 4.515 6.668 1.634 5.278 1.634 8.196v28.2h-9.863zm-94.525-2.331l-21.185 30.531h-10.138v-48.62h10.138v30.561l21.185-30.561h10.141v2.462 1.012 45.146h-10.141zm17.083 22.057h14.309V274.46h10.002v40.145h14.306v8.474H489.78zm131.894 8.474l-14.932-22.573-15.003 22.573h-7.5V274.46h9.792v27.642l12.711-19.1 12.641 19.061V274.46h9.792v42.367 2.015 4.237zm-215.932 0l-19.936-48.619h10.42l14.714 35.783 14.804-35.783h10.42l-19.936 48.619zm-80.986-30.145l10.002-1.388a20.95 20.95 0 0 1 .833 3.473c.185 1.202.279 2.43.279 3.681 0 3.426-.661 6.656-1.979 9.688s-3.102 5.679-5.348 7.938-4.887 4.04-7.919 5.348-6.286 1.96-9.759 1.96-6.68-.649-9.619-1.945-5.5-3.068-7.674-5.313-3.88-4.885-5.105-7.917-1.842-6.264-1.842-9.69c0-3.474.614-6.716 1.842-9.724s2.928-5.65 5.105-7.917a23.79 23.79 0 0 1 7.674-5.348c2.939-1.299 6.148-1.946 9.619-1.946 2.685 0 5.244.395 7.676 1.181s4.687 1.898 6.772 3.334l10.486-10.489v12.503l-3.542 3.509-4.443 4.375-4.829 4.791-4.758 4.758-4.2 4.238-3.162 3.195v-12.363l7.78-7.781a15.49 15.49 0 0 0-3.716-1.735c-1.32-.418-2.673-.626-4.064-.626-2.083 0-3.993.416-5.728 1.247s-3.23 1.976-4.482 3.431-2.233 3.154-2.951 5.095-1.077 4.019-1.077 6.236c0 2.172.359 4.229 1.077 6.168s1.702 3.626 2.951 5.06a13.77 13.77 0 0 0 4.482 3.395c1.735.831 3.645 1.249 5.728 1.249s4.028-.418 5.835-1.251a15.41 15.41 0 0 0 4.757-3.403c1.365-1.435 2.442-3.126 3.23-5.069s1.181-4.007 1.181-6.182c0-1.067-.092-2.061-.279-2.987a15.95 15.95 0 0 0-.833-2.779m50.633 1.945v-.139-.208c0-1.667-.29-3.23-.869-4.689s-1.376-2.732-2.397-3.821a11.77 11.77 0 0 0-3.577-2.604c-1.367-.649-2.812-.971-4.34-.971a9.97 9.97 0 0 0-4.34.971 11.75 11.75 0 0 0-3.577 2.604c-1.02 1.089-1.818 2.364-2.396 3.821s-.869 3.022-.869 4.689v.208.139 28.2h-9.863v-28.2c0-2.918.546-5.65 1.634-8.196s2.593-4.769 4.515-6.668 4.155-3.393 6.701-4.479 5.279-1.634 8.195-1.634 5.648.546 8.196 1.634a21.36 21.36 0 0 1 6.701 4.479c1.922 1.899 3.429 4.121 4.515 6.668s1.634 5.278 1.634 8.196v28.2h-9.863z"/></g><path d="M288.571 261.17v-3.302h2.964c1.239 0 1.771.824 1.771 1.651s-.546 1.651-1.771 1.651zm7.198-8.509h-2.316l-3.009 3.45h-1.873v-3.45h-1.946v10.338l4.91-.014c2.434-.014 3.717-1.637 3.717-3.422 0-1.417-.649-2.845-2.61-3.244l3.127-3.525zm3.736 5.059c.044-1.696.958-3.511 3.391-3.511s3.349 1.829 3.378 3.525c.03 1.74-.944 3.687-3.378 3.687s-3.435-1.961-3.391-3.701m8.687.044c-.03-2.67-1.667-5.34-5.296-5.34s-5.308 2.612-5.308 5.324 1.74 5.443 5.308 5.443c3.556 0 5.325-2.728 5.296-5.427m4.369-.044c.045-1.696.958-3.511 3.391-3.511s3.349 1.829 3.378 3.525c.03 1.74-.944 3.687-3.378 3.687s-3.435-1.961-3.391-3.701m8.687.044c-.03-2.67-1.666-5.34-5.296-5.34s-5.308 2.612-5.308 5.324 1.74 5.443 5.308 5.443c3.556 0 5.325-2.728 5.296-5.427m2.91-5.103v10.31h7.419v-1.873h-5.473v-2.818h5.178v-1.799h-5.178v-3.82zm10.402 10.324h1.931v-10.324h-1.931zm12.021.014h1.948v-10.338h-1.21v-.014l-5.428 6.975v-6.961h-1.947v10.324h1.579l5.058-6.401zm12.881-2.537c-.693.663-1.726 1.033-2.626 1.033-2.212 0-3.554-1.682-3.554-3.806 0-1.696.989-3.45 3.554-3.45.812 0 1.519.175 2.331.824v1.83h-2.64v1.74h4.425v-4.35c-1.018-1.166-2.302-1.859-4.116-1.859-3.878 0-5.457 2.553-5.457 5.265 0 2.907 1.815 5.591 5.457 5.591 1.387 0 2.774-.532 3.835-1.579zm13.648.354l-1.918-4.394h3.834zm2.698-6.209h-5.399l-.883-1.946h-2.11l4.631 10.324h2.124l4.63-10.324h-2.122z"/><use xlinkHref="#B"/><path d="M394.962 254.534h2.124c2.345 0 3.272 1.71 3.23 3.391-.044 1.607-.988 3.216-3.23 3.216h-2.124zm7.284 3.377c.045-2.611-1.548-5.251-5.16-5.251h-4.056v10.325h4.056c3.539 0 5.118-2.523 5.16-5.074m9.165-.428h2.921c2.492 0 2.475 3.658 0 3.658h-2.921zm2.921-1.785h-2.921v-3.038h-1.946v10.325l4.867.014c5.042 0 5.056-7.301 0-7.301"/><use xlinkHref="#C"/><path d="M433.807 257.72c.044-1.696.958-3.511 3.391-3.511s3.35 1.829 3.378 3.525c.03 1.74-.944 3.687-3.378 3.687s-3.435-1.961-3.391-3.701m8.687.044c-.03-2.67-1.667-5.34-5.296-5.34s-5.309 2.612-5.309 5.324 1.74 5.443 5.309 5.443c3.556 0 5.324-2.728 5.296-5.427m2.912-5.103v10.31h7.418v-1.873h-5.472v-2.818h5.177v-1.799h-5.177v-3.82z"/><use xlinkHref="#D"/><path d="M473.008 260.493c-.354.59-1.328 1.15-2.448 1.15-1.447 0-2.14-.604-2.14-1.373 0-.899 1.063-1.15 2.302-1.297 2.152-.265 4.16-.827 4.16-3.289 0-2.3-2.036-3.288-4.338-3.288-2.108 0-3.731.649-4.497 2.537l1.621.841c.459-1.136 1.653-1.638 2.906-1.638 1.223 0 2.375.427 2.375 1.548 0 .973-1.018 1.371-2.389 1.518-2.11.251-4.056.813-4.056 3.127 0 2.124 2.094 2.996 3.996 3.01 1.609 0 3.274-.457 4.056-2.05zm11.226 0c-.354.59-1.328 1.15-2.448 1.15-1.447 0-2.14-.604-2.14-1.373 0-.899 1.063-1.15 2.302-1.297 2.153-.265 4.157-.827 4.157-3.289 0-2.3-2.033-3.288-4.335-3.288-2.108 0-3.731.649-4.497 2.537l1.621.841c.459-1.136 1.653-1.638 2.906-1.638 1.223 0 2.375.427 2.375 1.548 0 .973-1.018 1.371-2.389 1.518-2.11.251-4.056.813-4.056 3.127 0 2.124 2.094 2.996 3.996 3.01 1.609 0 3.274-.457 4.056-2.05zm4.872 2.492h1.932v-10.324h-1.932zm7.008-5.265c.044-1.696.958-3.511 3.391-3.511s3.35 1.829 3.378 3.525c.03 1.74-.944 3.687-3.378 3.687s-3.436-1.961-3.391-3.701m8.687.044c-.03-2.67-1.667-5.34-5.296-5.34s-5.309 2.612-5.309 5.324 1.74 5.443 5.309 5.443c3.556 0 5.324-2.728 5.296-5.427m9.694 5.235h1.946v-10.338h-1.208v-.014l-5.427 6.975v-6.961h-1.946v10.324h1.576l5.059-6.401zm9.842-2.183l-1.918-4.394h3.834zm2.698-6.209h-5.399l-.882-1.946h-2.111l4.631 10.324h2.124l4.631-10.324h-2.122zm7.453 8.378v-8.526h5.31v-1.798h-7.256v10.324zm18.988-2.492c-.354.59-1.328 1.15-2.448 1.15-1.447 0-2.14-.604-2.14-1.373 0-.899 1.063-1.15 2.302-1.297 2.153-.265 4.16-.827 4.16-3.289 0-2.3-2.036-3.288-4.338-3.288-2.108 0-3.731.649-4.497 2.537l1.621.841c.459-1.136 1.653-1.638 2.906-1.638 1.223 0 2.375.427 2.375 1.548 0 .973-1.018 1.371-2.389 1.518-2.11.251-4.056.813-4.056 3.127 0 2.124 2.094 2.996 3.996 3.01 1.609 0 3.274-.457 4.056-2.05zm12.554-7.832h-7.729v10.324h7.729v-1.887h-5.797v-2.375h5.589v-1.816h-5.589v-2.328h5.797zm4.945 8.509v-3.302h2.965c1.239 0 1.769.824 1.769 1.651s-.546 1.651-1.769 1.651zm7.198-8.509h-2.317l-3.007 3.45h-1.874v-3.45h-1.946v10.338l4.911-.014c2.434-.014 3.717-1.637 3.717-3.422 0-1.417-.651-2.845-2.611-3.244l3.127-3.525zm7.878-.045h-2.019l-4.293 10.369h2.183l3.113-8.039 3.126 8.039h2.183zm6.982 10.369h1.932v-10.324h-1.932zm14.337-9.027c-1.063-1.047-2.434-1.534-3.923-1.534-3.834 0-5.457 2.64-5.471 5.324-.017 2.7 1.74 5.443 5.471 5.443 1.4 0 2.728-.532 3.79-1.579l-1.298-1.253c-.679.663-1.593.975-2.492.975-2.492 0-3.57-1.86-3.556-3.586.017-1.71 1.003-3.495 3.556-3.495.899 0 1.916.368 2.595 1.047zm10.27-1.297h-7.729v10.324h7.729v-1.887h-5.797v-2.375h5.589v-1.816h-5.589v-2.328h5.797zm9.664 7.832c-.354.59-1.328 1.15-2.448 1.15-1.447 0-2.14-.604-2.14-1.373 0-.899 1.063-1.15 2.302-1.297 2.153-.265 4.157-.827 4.157-3.289 0-2.3-2.033-3.288-4.335-3.288-2.108 0-3.731.649-4.497 2.537l1.621.841c.459-1.136 1.653-1.638 2.907-1.638 1.222 0 2.374.427 2.374 1.548 0 .973-1.018 1.371-2.389 1.518-2.11.251-4.056.813-4.056 3.127 0 2.124 2.094 2.996 3.996 3.01 1.609 0 3.274-.457 4.056-2.05z"/></g></g></svg>