<svg width="62" height="63" viewBox="0 0 62 63" fill="none" xmlns="http://www.w3.org/2000/svg">
<path fill-rule="evenodd" clip-rule="evenodd" d="M30.9962 61.0383C47.2188 61.0383 60.3699 47.8873 60.3699 31.6647C60.3699 15.4421 47.2188 2.29102 30.9962 2.29102C14.7736 2.29102 1.62256 15.4421 1.62256 31.6647C1.62256 47.8873 14.7736 61.0383 30.9962 61.0383ZM30.9962 62.5383C48.0473 62.5383 61.8699 48.7157 61.8699 31.6647C61.8699 14.6136 48.0473 0.791016 30.9962 0.791016C13.9452 0.791016 0.122559 14.6136 0.122559 31.6647C0.122559 48.7157 13.9452 62.5383 30.9962 62.5383Z" fill="#E3E8ED"/>
<path fill-rule="evenodd" clip-rule="evenodd" d="M24.3579 20.0577L21.5956 20.5873C20.6693 20.765 20.2547 21.423 20.3197 22.0115C20.6075 24.6134 21.767 29.3187 26.0985 34.8466C30.5107 40.4775 34.8562 42.7105 37.2723 43.5795C37.7988 43.7688 38.4972 43.5529 38.9208 42.772L40.4828 39.8924L41.579 38.0099C41.6516 37.8851 41.6237 37.7261 41.5129 37.6336L37.9649 34.6718C37.854 34.5792 37.6924 34.5802 37.5826 34.6742L35.6381 36.3397C34.5497 37.2718 32.8968 37.4413 31.6486 36.512C30.3114 35.5163 29.0244 34.3062 27.9477 32.8423C27.0273 31.5908 26.2956 30.2917 25.7136 29.013C25.0247 27.4994 25.6518 25.8117 26.9525 24.9888L28.4662 24.0311C28.588 23.954 28.6366 23.8004 28.5813 23.6673L26.9545 19.75C26.8998 19.6182 26.7588 19.5442 26.6192 19.5741L24.3579 20.0577ZM42.4742 36.4821C43.1465 37.0434 43.316 38.0078 42.8752 38.7647L41.7905 40.6275L40.2393 43.4872C39.5437 44.7695 38.1374 45.4847 36.7647 44.991C34.104 44.034 29.5175 41.6419 24.9178 35.7718C20.4006 30.007 19.1447 25.033 18.8288 22.1764C18.6591 20.6419 19.7969 19.4049 21.3131 19.1142L24.0598 18.5875L26.3055 18.1072C27.1522 17.9262 28.0077 18.375 28.3398 19.1747L29.9666 23.092C30.302 23.8995 30.0071 24.8312 29.2682 25.2987L27.7545 26.2564C27.0339 26.7123 26.7256 27.6156 27.0789 28.3917C27.6233 29.5879 28.3044 30.7955 29.1561 31.9536C30.1289 33.2762 31.3028 34.3844 32.5444 35.3088C33.1818 35.7834 34.0588 35.7173 34.6623 35.2004L36.6068 33.535C37.2727 32.9646 38.2531 32.9584 38.9262 33.5203L42.4742 36.4821Z" fill="#E3E8ED"/>
</svg>
